<svg width="25" height="25" viewBox="0 0 25 25" fill="none" xmlns="http://www.w3.org/2000/svg">
<g clip-path="url(#clip0_8_2409)">
<path d="M4.8112 16.6678C5.06259 16.8174 5.27844 17.0121 5.45069 17.2371H8.70585V14.0806L7.16235 13.1236C6.81858 12.9105 6.71268 12.459 6.9258 12.1153C7.13896 11.7716 7.59024 11.6657 7.93415 11.8787L9.43821 12.8112L10.7492 11.9984C8.13433 8.41283 8.73485 3.33221 12.2155 0.464604C6.48209 -1.45611 0.467662 2.8135 0.440516 8.94559C0.426357 12.1976 2.15769 15.0882 4.8112 16.6678Z" fill="#B1B1B1"/>
<path d="M5.90869 18.7017H12.8416V20.3617H5.90869V18.7017Z" fill="#B1B1B1"/>
<path d="M10.1704 14.0807V17.2372H13.2897C13.4554 17.0186 13.662 16.8313 13.9024 16.6897C14.5681 16.2979 15.1792 15.8201 15.7208 15.2731C14.1909 14.9286 12.817 14.1678 11.7245 13.1165C11.6828 13.1435 11.3826 13.3292 10.1704 14.0807Z" fill="#B1B1B1"/>
<path d="M17.5775 0.00244141C13.7372 0.00244141 10.5957 3.17582 10.5957 7.03303C10.5957 10.6612 13.3808 13.6656 16.952 13.9862C21.0847 14.3554 24.5592 11.0794 24.5592 7.03303C24.5592 3.18329 21.4273 0.00244141 17.5775 0.00244141ZM18.3108 10.2073V10.3604C18.3108 10.7649 17.9829 11.0928 17.5784 11.0928C17.174 11.0928 16.8461 10.7649 16.8461 10.3604V10.2901C16.5087 10.231 16.2004 10.1047 15.8109 9.8499C15.4724 9.62849 15.3776 9.17462 15.599 8.83613C15.8204 8.49759 16.2743 8.40277 16.6128 8.62414C16.9698 8.85771 17.0854 8.87592 17.5735 8.87255C18.0446 8.86943 18.2323 8.49959 18.269 8.28159C18.3019 8.08586 18.265 7.82563 17.902 7.69737C17.294 7.4824 16.6704 7.23574 16.2287 6.88929C15.2229 6.1004 15.5265 4.29857 16.8461 3.81907V3.71303C16.8461 3.30857 17.174 2.98068 17.5785 2.98068C17.983 2.98068 18.3108 3.30857 18.3108 3.71303V3.75365C18.6717 3.8555 18.9623 4.03971 19.1619 4.24272C19.4456 4.53107 19.4417 4.99474 19.1533 5.27836C18.865 5.56183 18.4017 5.55807 18.1181 5.27021C18.0773 5.23032 17.8517 5.0422 17.3632 5.18931C17.1682 5.24804 17.1158 5.45027 17.1044 5.51086C17.0806 5.63731 17.1145 5.72256 17.1327 5.73681C17.4089 5.95349 17.9234 6.15137 18.3902 6.3164C20.3204 6.99866 20.0852 9.56585 18.3108 10.2073Z" fill="#B1B1B1"/>
<path d="M7.08057 22.7052C7.08057 23.9705 8.10996 24.9999 9.37527 24.9999C10.6406 24.9999 11.67 23.9705 11.67 22.7052V21.8264H7.08057V22.7052Z" fill="#B1B1B1"/>
</g>
<defs>
<clipPath id="clip0_8_2409">
<rect width="25" height="25" fill="white"/>
</clipPath>
</defs>
</svg>
