<svg width="70" height="15" viewBox="0 0 70 15" fill="none" xmlns="http://www.w3.org/2000/svg">
<path d="M43.0584 0.753886C43.0584 4.32656 44.4777 7.7529 47.0039 10.2792C49.5302 12.8054 52.9566 14.2247 56.5292 14.2247C60.1019 14.2247 63.5282 12.8054 66.0545 10.2792C68.5808 7.75291 70 4.32656 70 0.75389L65.5702 0.753889C65.5702 3.15171 64.6177 5.45132 62.9222 7.14684C61.2267 8.84236 58.927 9.79489 56.5292 9.79489C54.1314 9.79489 51.8318 8.84235 50.1363 7.14684C48.4408 5.45132 47.4882 3.15171 47.4882 0.753886L43.0584 0.753886Z" fill="#2D60FF"/>
<path d="M42.7887 0.753874L47.2676 0.753878L43.0594 11.6914C42.4428 13.294 40.903 14.3513 39.186 14.3513H37.4003L42.7887 0.753874Z" fill="#2D60FF"/>
<path d="M12.7592 11.6268C12.7592 13.1147 11.553 14.3209 10.0651 14.3209C8.57715 14.3209 7.37093 13.1147 7.37093 11.6268C7.37093 10.1388 8.57715 8.9326 10.0651 8.9326C11.553 8.9326 12.7592 10.1388 12.7592 11.6268Z" fill="#2D60FF"/>
<path d="M6.83158 11.6268C6.83158 13.1147 5.62537 14.3209 4.13742 14.3209C2.64948 14.3209 1.44327 13.1147 1.44327 11.6268C1.44327 10.1388 2.64948 8.9326 4.13742 8.9326C5.62537 8.9326 6.83158 10.1388 6.83158 11.6268Z" fill="#2D60FF"/>
<path d="M18.677 0.820645C17.123 3.66474 14.1259 5.41858 10.8852 5.38018L0 5.25118C1.53134 2.4095 4.51356 0.652788 7.74136 0.691042L18.677 0.820645Z" fill="#2D60FF"/>
<path d="M20.2062 0.753892L24.8972 0.753896L18.7607 14.166C16.5676 14.166 15.1102 11.8968 16.0223 9.9024L20.2062 0.753892Z" fill="#2D60FF"/>
<path d="M24.9643 4.7179C25.7226 2.95964 28.1901 2.88996 29.0464 4.60263L26.5895 11.6033C26.0503 13.1396 24.608 14.1747 22.98 14.1938L20.8668 14.2186L24.9643 4.7179Z" fill="#2D60FF"/>
<path d="M37.9402 7.51963C37.9234 11.2394 34.8943 14.2413 31.1745 14.2245C27.4547 14.2077 24.4528 11.1786 24.4696 7.45882C24.4864 3.739 27.5155 0.737108 31.2353 0.753901C34.9551 0.770693 37.957 3.79981 37.9402 7.51963ZM28.1985 7.47565C28.191 9.13601 29.531 10.4881 31.1913 10.4956C32.8517 10.5031 34.2038 9.16316 34.2113 7.50279C34.2188 5.84243 32.8788 4.49036 31.2185 4.48286C29.5581 4.47537 28.206 5.81528 28.1985 7.47565Z" fill="#2D60FF"/>
</svg>
